<?xml version="1.0" encoding="UTF-8"?>
<!-- Uploaded to: SVG Repo, www.svgrepo.com, Transformed by: SVG Repo Mixer Tools -->
<svg width="800px" height="800px" fill="none" version="1.1" viewBox="0 0 400 400" xmlns="http://www.w3.org/2000/svg">
 <g id="SVGRepo_iconCarrier" transform="matrix(1.3025 0 0 1.4984 -65.9 -102.63)" stroke="#000000" stroke-linecap="round" stroke-linejoin="round" stroke-opacity="1" stroke-width="20">
  <path d="m74 211.66c25.046-69.407 81.836-124.53 152.72-102.89 49.46 15.096 28.711 43.227 47.931 61.721 10.844 8.343 40.285-2.855 47.9 7.561 6.732 9.212 1.868 26.018 0 37.05-7.369 43.5-57.235 49.903-99.483 49.903"/>
  <path d="m325 194c-3.482-6.608-11.428-12.786-21-18"/>
  <path d="m132.24 181.22c-2.514 13.688-41.269 106.92-1.147 114.87 74.513 10.644 65.57-74.115 65.57-127.09"/>
  <path d="m234 168v5"/>
 </g>
</svg>
