<svg xmlns="http://www.w3.org/2000/svg" xmlns:svg="http://www.w3.org/2000/svg" id="svg31" width="512" height="512" version="1.1"><defs id="defs31"><clipPath id="clipPath63" clipPathUnits="userSpaceOnUse"><circle style="fill:#24221c;stroke:#000;stroke-width:36.6834;stroke-opacity:.9;paint-order:fill markers stroke" id="circle63" cx="-21.686" cy="110.571" r="233.056"/></clipPath><clipPath id="clipPath64" clipPathUnits="userSpaceOnUse"><circle style="fill:#24221c;stroke:#000;stroke-width:36.6834;stroke-opacity:.9;paint-order:fill markers stroke" id="circle64" cx="-55.686" cy="52.571" r="233.056"/></clipPath><clipPath id="clipPath65" clipPathUnits="userSpaceOnUse"><circle style="fill:#24221c;stroke:#000;stroke-width:36.6834;stroke-opacity:.9;paint-order:fill markers stroke" id="circle65" cx="58.939" cy="52.008" r="233.056"/></clipPath><clipPath id="clipPath66" clipPathUnits="userSpaceOnUse"><circle style="fill:#24221c;stroke:#000;stroke-width:36.6834;stroke-opacity:.9;paint-order:fill markers stroke" id="circle66" cx="7.314" cy="113.571" r="233.056"/></clipPath><clipPath id="clipPath67" clipPathUnits="userSpaceOnUse"><circle style="fill:#24221c;stroke:#000;stroke-width:36.6834;stroke-opacity:.9;paint-order:fill markers stroke" id="circle67" cx="7.314" cy="-168.429" r="233.056"/></clipPath><clipPath id="clipPath68" clipPathUnits="userSpaceOnUse"><circle style="fill:#24221c;stroke:#000;stroke-width:36.6834;stroke-opacity:.9;paint-order:fill markers stroke" id="circle68" cx="84.314" cy="-168.429" r="233.056"/></clipPath><clipPath id="clipPath69" clipPathUnits="userSpaceOnUse"><circle style="fill:#24221c;stroke:#000;stroke-width:36.6834;stroke-opacity:.9;paint-order:fill markers stroke" id="circle69" cx="74.74" cy="88.805" r="233.056"/></clipPath><clipPath id="clipPath70" clipPathUnits="userSpaceOnUse"><circle style="fill:#24221c;stroke:#000;stroke-width:36.6834;stroke-opacity:.9;paint-order:fill markers stroke" id="circle70" cx="61.564" cy="157.321" r="233.056"/></clipPath><clipPath id="clipPath71" clipPathUnits="userSpaceOnUse"><circle style="fill:#24221c;stroke:#000;stroke-width:36.6834;stroke-opacity:.9;paint-order:fill markers stroke" id="circle71" cx="-101.686" cy="-8.429" r="233.056"/></clipPath><clipPath id="clipPath72" clipPathUnits="userSpaceOnUse"><circle style="fill:#24221c;stroke:#000;stroke-width:36.6834;stroke-opacity:.9;paint-order:fill markers stroke" id="circle72" cx="97.314" cy="-10.429" r="233.056"/></clipPath><clipPath id="clipPath73" clipPathUnits="userSpaceOnUse"><circle style="fill:#24221c;stroke:#000;stroke-width:36.6834;stroke-opacity:.9;paint-order:fill markers stroke" id="circle73" cx="-12.623" cy="217.883" r="233.056"/></clipPath><clipPath id="clipPath74" clipPathUnits="userSpaceOnUse"><circle style="fill:#24221c;stroke:#000;stroke-width:36.6834;stroke-opacity:.9;paint-order:fill markers stroke" id="circle74" cx="-94.686" cy="216.571" r="233.056"/></clipPath><clipPath id="clipPath75" clipPathUnits="userSpaceOnUse"><circle style="fill:#24221c;stroke:#000;stroke-width:36.6834;stroke-opacity:.9;paint-order:fill markers stroke" id="circle75" cx="-62.69" cy="55.656" r="233.056"/></clipPath><clipPath id="clipPath76" clipPathUnits="userSpaceOnUse"><circle style="fill:#24221c;stroke:#000;stroke-width:36.6834;stroke-opacity:.9;paint-order:fill markers stroke" id="circle76" cx="50.252" cy="52.633" r="233.056"/></clipPath><clipPath id="clipPath77" clipPathUnits="userSpaceOnUse"><circle style="fill:#24221c;stroke:#000;stroke-width:36.6834;stroke-opacity:.9;paint-order:fill markers stroke" id="circle77" cx="-103.998" cy="-170.429" r="233.056"/></clipPath><clipPath id="clipPath78" clipPathUnits="userSpaceOnUse"><circle style="fill:#24221c;stroke:#000;stroke-width:36.6834;stroke-opacity:.9;paint-order:fill markers stroke" id="circle78" cx="103.314" cy="-165.429" r="233.056"/></clipPath><clipPath id="clipPath79" clipPathUnits="userSpaceOnUse"><circle style="fill:#24221c;stroke:#000;stroke-width:36.6834;stroke-opacity:.9;paint-order:fill markers stroke" id="circle79" cx="26.314" cy="-165.429" r="233.056"/></clipPath><clipPath id="clipPath80" clipPathUnits="userSpaceOnUse"><circle style="fill:#24221c;stroke:#000;stroke-width:36.6834;stroke-opacity:.9;paint-order:fill markers stroke" id="circle80" cx="77.314" cy="-43.429" r="233.056"/></clipPath><clipPath id="clipPath81" clipPathUnits="userSpaceOnUse"><circle style="fill:#24221c;stroke:#000;stroke-width:36.6834;stroke-opacity:.9;paint-order:fill markers stroke" id="circle81" cx="-21.686" cy="175.571" r="233.056"/></clipPath><clipPath id="clipPath82" clipPathUnits="userSpaceOnUse"><circle style="fill:#24221c;stroke:#000;stroke-width:36.6834;stroke-opacity:.9;paint-order:fill markers stroke" id="circle82" cx="-1.686" cy="-65.429" r="233.056"/></clipPath><clipPath id="clipPath83" clipPathUnits="userSpaceOnUse"><circle style="fill:#24221c;stroke:#000;stroke-width:36.6834;stroke-opacity:.9;paint-order:fill markers stroke" id="circle83" cx="113.314" cy="96.571" r="233.056"/></clipPath><clipPath id="clipPath84" clipPathUnits="userSpaceOnUse"><circle style="fill:#24221c;stroke:#000;stroke-width:36.6834;stroke-opacity:.9;paint-order:fill markers stroke" id="circle84" cx="176.064" cy="-60.242" r="233.056"/></clipPath><clipPath id="clipPath85" clipPathUnits="userSpaceOnUse"><circle style="fill:#24221c;stroke:#000;stroke-width:36.6834;stroke-opacity:.9;paint-order:fill markers stroke" id="circle85" cx="-187.948" cy="-48.816" r="233.056"/></clipPath><clipPath id="clipPath86" clipPathUnits="userSpaceOnUse"><circle style="fill:#24221c;stroke:#000;stroke-width:36.6834;stroke-opacity:.9;paint-order:fill markers stroke" id="circle86" cx="-146.291" cy="85.473" r="233.056"/></clipPath><clipPath id="clipPath87" clipPathUnits="userSpaceOnUse"><circle style="fill:#24221c;stroke:#000;stroke-width:36.6834;stroke-opacity:.9;paint-order:fill markers stroke" id="circle87" cx="-67.686" cy="205.571" r="233.056"/></clipPath><clipPath id="clipPath88" clipPathUnits="userSpaceOnUse"><circle style="fill:#24221c;stroke:#000;stroke-width:36.6834;stroke-opacity:.9;paint-order:fill markers stroke" id="circle88" cx="28.314" cy="70.571" r="233.056"/></clipPath><clipPath id="clipPath89" clipPathUnits="userSpaceOnUse"><circle style="fill:#24221c;stroke:#000;stroke-width:36.6834;stroke-opacity:.9;paint-order:fill markers stroke" id="circle89" cx="19.314" cy="104.571" r="233.056"/></clipPath><clipPath id="clipPath90" clipPathUnits="userSpaceOnUse"><circle style="fill:#24221c;stroke:#000;stroke-width:36.6834;stroke-opacity:.9;paint-order:fill markers stroke" id="circle90" cx="-67.686" cy="205.571" r="233.056"/></clipPath><clipPath id="clipPath91" clipPathUnits="userSpaceOnUse"><circle style="fill:#24221c;stroke:#000;stroke-width:36.6834;stroke-opacity:.9;paint-order:fill markers stroke" id="circle91" cx="256.314" cy="-108.429" r="233.056"/></clipPath><clipPath id="clipPath92" clipPathUnits="userSpaceOnUse"><circle style="fill:#24221c;stroke:#000;stroke-width:36.6834;stroke-opacity:.9;paint-order:fill markers stroke" id="circle92" cx="256.314" cy="257.571" r="233.056"/></clipPath><clipPath id="clipPath93" clipPathUnits="userSpaceOnUse"><circle style="fill:#24221c;stroke:#000;stroke-width:36.6834;stroke-opacity:.9;paint-order:fill markers stroke" id="circle93" cx="256.314" cy="257.571" r="233.056"/></clipPath></defs><path id="path1" fill="#692d16" d="m 0,0 c 168.96,0 337.92,0 512,0 0,168.96 0,337.92 0,512 -168.96,0 -337.92,0 -512,0 C 0,343.04 0,174.08 0,0 Z" clip-path="url(#clipPath93)" transform="matrix(0.5394252,0,0,0.54017625,117.41372,118.49441)"/><path id="path2" fill="#fefefe" d="m 0,0 c 168.96,0 337.92,0 512,0 0,117.48 0,234.96 0,356 -8.91,0 -17.82,0 -27,0 -0.52,-3.34 -1.03,-6.68 -1.56,-10.12 C 480.7,330 474.59,317.18 461.38,307.38 446.86,297.77 435.13,294.63 418,295 c -0.26,-0.78 -0.26,-0.78 -0.52,-1.58 -1.75,-5.33 -3.63,-10.59 -5.61,-15.84 -0.85,-2.52 -1.41,-4.97 -1.87,-7.58 0.5,-0.38 0.99,-0.76 1.5,-1.14 11.08,-8.98 15.39,-20.68 19.5,-33.86 0.21,-0.66 0.43,-1.31 0.65,-1.99 4.97,-15.42 4.91,-30.26 -1.77,-45.13 -9.38,-17.07 -26.93,-24.38 -44.86,-29.76 -11.91,-3.38 -24.01,-4.89 -36.02,-1.12 -0.1,-0.75 -0.2,-1.5 -0.3,-2.27 -0.15,-0.98 -0.3,-1.97 -0.45,-2.98 -0.14,-0.97 -0.28,-1.95 -0.42,-2.95 -1.03,-3.48 -1.83,-4.75 -4.83,-6.8 -2.91,-0.61 -5.78,-0.7 -8.75,-0.75 -0.79,-0.03 -1.59,-0.06 -2.4,-0.09 -1.95,-0.07 -3.9,-0.12 -5.85,-0.16 -1.87,-8.85 -2.29,-17.47 -2.21,-26.47 0.02,-2.19 0.02,-4.38 0.02,-6.57 C 323.85,97.3 323.85,97.3 325,95 c 1.19,0.03 2.38,0.07 3.61,0.11 1.57,0.02 3.14,0.05 4.7,0.08 0.79,0.02 1.57,0.05 2.38,0.07 0.76,0.01 1.52,0.02 2.3,0.03 0.69,0.02 1.39,0.03 2.11,0.05 2.52,-0.45 3.39,-1.31 4.9,-3.34 0.18,-3.41 0.18,-3.41 -0.25,-7.12 -0.16,-1.9 -0.16,-1.9 -0.33,-3.83 -0.09,-2.92 -0.09,-2.92 -1.42,-4.05 -6,-1.17 -11.91,-1.1 -18,-1 -0.06,-1.23 -0.12,-2.46 -0.18,-3.73 -0.09,-1.63 -0.17,-3.26 -0.26,-4.89 -0.04,-0.81 -0.08,-1.62 -0.12,-2.45 -0.23,-4.38 -0.61,-8.62 -1.44,-12.93 -3.71,-1.28 -6.73,-0.79 -10.56,-0.19 -1.14,0.17 -2.27,0.35 -3.44,0.52 -3.16,0.52 -3.16,0.52 -6,2.67 -0.81,2.85 -1.04,5.54 -1.25,8.5 -1.45,6.79 -7.3,9.72 -12.76,13.36 C 287,78 287,78 285,78 c -2.44,5.64 -2.19,10.98 -2,17 3.3,0.66 6.6,1.32 10,2 0,17.16 0,34.32 0,52 -6.27,-0.99 -12.54,-1.98 -19,-3 -0.13,-21.5 -0.03,-42.68 3,-64 -8.87,-5.92 -26.8,-1.15 -37,0 0,4.62 0,9.24 0,14 1.3,0.14 2.6,0.29 3.94,0.44 3.94,0.44 3.94,0.44 5.06,1.56 0.93,5.82 1.16,11.49 1.12,17.38 0,0.85 0,1.71 0,2.59 -0.06,8.7 -0.53,17.36 -1.12,26.03 -5.44,1.81 -11.34,1.98 -17.04,2.52 -1.54,0.15 -3.08,0.31 -4.62,0.48 -9.08,0.99 -16.66,1.2 -25.58,-1.27 -8.96,-2.38 -18.91,-1.06 -27.76,1.27 0.99,-2.97 0.99,-2.97 2,-6 0.99,0.02 0.99,0.02 2,0.05 3.02,0.06 6.04,0.1 9.06,0.14 1.04,0.02 2.08,0.05 3.15,0.07 6.17,0.06 10.31,-0.43 15.79,-3.26 1.57,-0.43 1.57,-0.43 3.17,-0.88 3.53,-1.4 4.88,-3.1 7.14,-6.12 0.68,-0.89 1.36,-1.77 2.05,-2.69 4.44,-6.27 3.16,-15.35 2.19,-22.75 -0.46,-2.53 -0.97,-5.05 -1.55,-7.56 0.76,-0.01 1.52,-0.03 2.3,-0.04 5.99,-0.08 5.99,-0.08 10.89,-3.02 1.05,-3.82 1.01,-6.98 0.81,-10.94 -13.35,-2.86 -26.71,-3.11 -40.31,-3.25 -1.19,-0.02 -2.39,-0.04 -3.62,-0.06 -9.68,-0.04 -17.73,1.3 -25.95,6.69 -0.88,0.56 -1.76,1.12 -2.67,1.71 -5.14,4.02 -7.85,8.69 -9.45,14.91 -1.19,12.34 4.7,22.48 12,32 -0.89,0.81 -1.78,1.62 -2.7,2.45 -1.19,1.08 -2.37,2.16 -3.55,3.24 -0.88,0.79 -0.88,0.79 -1.78,1.6 -2.67,2.45 -4.88,4.57 -6.91,7.6 -2.06,2.11 -2.06,2.11 -5.61,2.42 -1.4,-0.09 -2.8,-0.19 -4.2,-0.31 -20.57,-0.79 -36.74,10.55 -51.43,24 -9.75,9.44 -16.77,19.56 -17.13,33.5 0.19,11.82 5.29,22.27 10.56,32.62 0.53,1.09 1.07,2.18 1.62,3.31 6.66,13.3 6.66,13.3 17.13,23.57 -0.17,0.52 -0.34,1.05 -0.52,1.59 -3.82,12.23 -6.57,24.74 -8.48,37.41 -1.02,0.01 -1.02,0.01 -2.06,0.03 -3.13,0.05 -6.25,0.14 -9.38,0.22 -1.07,0.01 -2.14,0.03 -3.24,0.04 C 64.1,309.64 56.2,313.38 48,321 38.21,331.5 34.35,342.35 31,356 20.77,356 10.54,356 0,356 0,238.52 0,121.04 0,0 Z" clip-path="url(#clipPath92)" transform="matrix(0.5394252,0,0,0.54017625,117.41372,118.49441)"/><path id="path3" fill="#fefefe" d="m 0,0 c 9.9,0 19.8,0 30,0 0.52,2.72 1.03,5.44 1.56,8.25 2.48,11.72 7.18,21.9 17.44,28.75 5.18,2.48 10.64,3.02 16.15,1.35 5.38,-2.33 7.42,-5.08 9.85,-10.35 0.71,0.29 1.43,0.58 2.16,0.88 9.29,3.6 15.48,3.84 24.95,0.53 5.01,-2.45 8.41,-6.45 10.89,-11.41 5,2 5,2 7.44,3.19 3.32,1.05 5.22,0.78 8.56,-0.19 7.45,-4.28 10.78,-13.5 14,-21 22.11,0 44.22,0 67,0 1.98,6.93 1.98,6.93 4,14 3.52,7.57 8.41,11.51 16,15 16.23,5.07 32.47,4.49 47.69,-3.19 C 287.56,19.85 296.8,10.4 302,0 c 22.11,0 44.22,0 67,0 1.98,3.96 1.98,3.96 4,8 5.26,3.21 13.22,3.6 19.23,2.65 2.04,-0.56 2.04,-0.56 4.77,-1.65 1.49,-0.5 1.49,-0.5 3,-1 0.43,1.24 0.87,2.48 1.31,3.75 1.84,3.53 3.48,5.15 7.13,6.75 5.69,1.73 11.34,1.88 17.25,1.94 0.89,0.01 1.78,0.02 2.7,0.03 6.83,-0.09 12.79,-1 18.11,-5.66 0.74,-0.89 0.74,-0.89 1.5,-1.81 0.52,0.29 1.04,0.58 1.58,0.88 6.13,3.09 11.58,4.29 18.42,3.12 8.23,-3.36 11.69,-9.45 16,-17 9.24,0 18.48,0 28,0 0,48.18 0,96.36 0,146 -168.96,0 -337.92,0 -512,0 C 0,97.82 0,49.64 0,0 Z" clip-path="url(#clipPath91)" transform="matrix(0.5394252,0,0,0.54017625,117.41372,316.19893)"/><path id="path4" fill="#fe4700" d="m 0,0 c 1.56,4.88 1.12,10.28 1.06,15.38 0,0.83 -0.01,1.66 -0.01,2.51 C 1.04,19.93 1.02,21.96 1,24 c 0.99,-0.5 0.99,-0.5 2,-1 5.36,-0.37 10.74,-0.07 16,1 2.8,2.8 2.54,4.97 2.88,8.88 0.12,1.23 0.24,2.46 0.36,3.74 C 22,40 22,40 20.45,42.43 c -3.31,2.13 -5.6,2 -9.51,1.88 C 9.71,44.29 8.48,44.26 7.21,44.24 4,44 4,44 1,43 0.97,47.62 0.96,52.24 0.95,56.87 0.94,58.43 0.93,60 0.92,61.57 0.87,70.77 1.01,79.84 2,89 c 1.17,-0.06 2.34,-0.12 3.54,-0.18 1.55,-0.04 3.1,-0.09 4.65,-0.13 0.77,-0.04 1.54,-0.09 2.33,-0.13 4.36,-0.09 5.95,0.02 9.48,2.85 3.51,4.55 3.43,8.95 3,14.59 -1.46,6.46 -1.46,6.46 -4,9 -3.12,0.23 -3.12,0.23 -6.88,0.19 -1.23,-0.01 -2.46,-0.02 -3.74,-0.02 C 7.65,115.03 5.61,114.66 3,114 c -2.33,-0.13 -4.67,-0.23 -7,-0.31 -8.41,-0.44 -15.78,-2.5 -23.25,-6.38 -3.63,-1.73 -6.76,-1.97 -10.75,-2.31 -0.33,1.32 -0.66,2.64 -1,4 -1.32,0.33 -2.64,0.66 -4,1 0,0.66 0,1.32 0,2 -5.78,0.17 -11.57,0.33 -17.35,0.48 -1.97,0.06 -3.94,0.11 -5.91,0.17 -2.82,0.08 -5.65,0.16 -8.48,0.23 -0.88,0.03 -1.76,0.05 -2.67,0.08 -0.82,0.02 -1.64,0.04 -2.49,0.06 -0.72,0.02 -1.44,0.04 -2.18,0.06 C -84,113 -84,113 -87,112 c -1.29,-7.43 -1.29,-7.43 0,-11 -0.99,0.5 -0.99,0.5 -2,1 -2,0.04 -4,0.04 -6,0 0.22,0.63 0.43,1.26 0.66,1.91 2.85,9.16 4.64,20.25 0.43,29.29 -5.68,9.39 -14.11,14.54 -24.71,17.18 -12.68,1.88 -24.21,0.81 -36.63,-2.13 -1.07,-0.25 -2.14,-0.5 -3.25,-0.76 -7.14,-1.82 -12.47,-3.9 -17.5,-9.49 -0.2,0.97 -0.39,1.94 -0.59,2.94 -2.31,10.66 -6.15,19.55 -11.41,29.06 -0.54,0.98 -1.07,1.96 -1.62,2.96 -5.18,9.44 -10.37,18.87 -16,28.05 -0.53,0.87 -1.06,1.73 -1.6,2.62 -2.87,3.83 -5.7,6 -10.22,7.56 -3.56,-0.19 -3.56,-0.19 -5.05,-1.47 -3.51,-4.29 -6.55,-8.67 -9.32,-13.47 -0.42,-0.72 -0.84,-1.44 -1.28,-2.18 -8.15,-14.24 -15.33,-27.33 -13.91,-44.07 3.68,-13.41 20.21,-26.13 31.76,-33.06 11.1,-6.28 21.45,-9.61 34.24,-8.94 0.29,-1.09 0.58,-2.19 0.88,-3.31 3.15,-8.48 11.05,-15.3 18.12,-20.69 -0.56,-0.67 -0.56,-0.67 -1.14,-1.36 -6.56,-8.25 -11.35,-17.64 -11.13,-28.4 0.89,-7.4 4.04,-13.03 9.85,-17.64 8.18,-5.42 15.66,-8.72 25.51,-8.73 1.17,0 2.34,-0.01 3.55,-0.01 1.85,0.01 1.85,0.01 3.74,0.02 1.26,0 2.52,0 3.82,0.01 27.24,0.16 27.24,0.16 36.8,4.11 1.43,2.87 1.31,4.81 1,8 -1.38,3.31 -1.38,3.31 -4,6 -3.34,0.8 -6.58,0.99 -10,1 0.22,0.82 0.22,0.82 0.44,1.66 2,8.56 4.01,18.53 -0.12,26.64 -1.98,2.74 -4.01,5.24 -6.32,7.7 -0.49,0.56 -0.98,1.12 -1.48,1.7 -1.9,1.63 -3.63,2.2 -6.02,2.92 -0.77,0.24 -1.55,0.48 -2.34,0.73 -0.72,0.22 -1.43,0.43 -2.16,0.65 -1.49,0.5 -1.49,0.5 -3,1 -1.7,0.08 -3.4,0.11 -5.11,0.1 -0.98,-0.01 -1.96,-0.01 -2.97,-0.01 -1.03,-0.01 -2.05,-0.02 -3.11,-0.03 -1.03,0 -2.07,-0.01 -3.14,-0.01 -2.55,-0.01 -5.11,-0.03 -7.67,-0.05 -0.99,1.98 -0.99,1.98 -2,4 1.76,-0.5 1.76,-0.5 3.56,-1 8.88,-1.94 17.52,-1.85 26.22,0.6 8.92,2.17 17.51,1.01 26.53,0.09 1.73,-0.16 3.45,-0.32 5.17,-0.48 4.18,-0.38 8.35,-0.79 12.52,-1.21 0.02,-5.27 0.04,-10.53 0.05,-15.8 0.01,-1.78 0.02,-3.57 0.03,-5.36 0.01,-2.58 0.01,-5.16 0.02,-7.75 0,-0.79 0.01,-1.58 0.01,-2.39 0,-4.99 -0.4,-9.76 -1.11,-14.7 -2.64,-0.66 -5.28,-1.32 -8,-2 -2.41,-9.64 -2.41,-9.64 0,-13.67 3.16,-2.1 6.62,-2.19 10.31,-2.52 0.8,-0.08 1.6,-0.15 2.42,-0.23 20.02,-1.83 20.02,-1.83 25.27,2.42 -0.2,1.3 -0.2,1.3 -0.4,2.62 -1.78,12.76 -2.26,25.51 -2.72,38.38 -0.09,2.24 -0.18,4.48 -0.27,6.72 -0.21,5.43 -0.41,10.85 -0.61,16.28 1.2,0.13 2.41,0.27 3.65,0.4 1.57,0.18 3.15,0.36 4.73,0.54 0.79,0.08 1.58,0.17 2.4,0.26 5.99,0.69 5.99,0.69 8.22,1.8 0,-17.16 0,-34.32 0,-52 -3.3,-0.66 -6.6,-1.32 -10,-2 -1.49,-9.28 -1.49,-9.28 -1,-13 4.16,-4.73 9.05,-7.73 14.36,-11.04 2.6,-1.93 3.66,-2.92 4.64,-5.96 -0.03,-1.7 -0.03,-1.7 -0.06,-3.44 0.07,-3.89 0.72,-5.5 3.06,-8.56 2.71,-1.35 5.33,-1.68 8.31,-2.19 1.13,-0.2 2.26,-0.4 3.43,-0.6 C -4.74,-2.02 -2.94,-1.96 0,0 Z" clip-path="url(#clipPath90)" transform="matrix(0.5394252,0,0,0.54017625,292.18749,146.58357)"/><path id="path5" fill="#fdfcfc" d="m 0,0 c 0,3.63 0,7.26 0,11 14.52,0 29.04,0 44,0 0,-0.66 0,-1.32 0,-2 1.32,-0.33 2.64,-0.66 4,-1 0.33,-1.32 0.66,-2.64 1,-4 6.44,-0.61 10.45,0.8 16.19,3.71 5.7,2.62 10.95,3.51 17.19,3.73 6.65,0.37 12.67,1.02 18.36,4.68 2,2.98 1.39,6.12 1.2,9.57 -0.22,8.98 1.36,16.76 4.06,25.31 0.24,0.76 0.47,1.52 0.72,2.31 5.49,17.44 12.34,35.59 24.28,49.69 1.06,1.3 1.06,1.3 2.14,2.63 7.1,8.33 15.54,15.81 26.66,17.32 2.82,0.06 5.44,-0.43 8.2,-0.95 2.58,7.28 4.67,14.4 6,22 -1.7,0.85 -1.7,0.85 -3.44,1.72 -16.04,8.16 -28.34,18.41 -35,35.78 -2.02,7.12 -3.76,14.32 -5.56,21.5 -20.79,0 -41.58,0 -63,0 1.13,-22.58 1.13,-22.58 7,-31 4.47,-7.68 7.62,-16.68 9.52,-25.36 C 84,145 84,145 86.06,143.56 c 0.96,-0.77 0.96,-0.77 1.94,-1.56 0.33,-2.63 0.33,-2.63 0,-5 -2.11,-0.98 -2.11,-0.98 -5,-1 -2.09,1.07 -3.94,2.31 -5.84,3.68 C 69.69,144.26 60.47,143.94 52,143 42.65,140.66 34.1,134.84 25.85,129.97 19.87,126.82 14.7,125.99 8,127 c -4.56,1.71 -8.74,3.96 -13,6.31 -12.17,6.59 -22.91,11.17 -37,9.69 -2.4,-0.76 -3.91,-1.57 -6,-3 0.68,-0.68 1.36,-1.36 2.06,-2.06 0.46,-0.46 0.92,-0.93 1.39,-1.4 1.04,-1.04 2.09,-2.06 3.16,-3.06 4.44,-4.27 7.96,-8.77 11.33,-13.92 0.51,-0.77 1.02,-1.54 1.55,-2.34 4.82,-7.43 8.79,-15.19 12.51,-23.22 0.73,0.76 1.45,1.52 2.2,2.3 7.38,7.12 15.6,10.62 25.74,11.01 5.12,-0.12 9.36,-1.34 14.06,-3.31 0.7,-0.28 1.41,-0.56 2.13,-0.84 5.95,-2.63 9.48,-6.52 13.01,-11.89 C 43.4,85.3 42.91,76.39 41.28,70.31 38.27,63.89 33.3,60.73 27,58 18.83,56.99 11.55,57.52 4.1,61.04 1.45,62.25 -1.12,62.7 -4,63 -3.93,62.45 -3.86,61.9 -3.78,61.33 -1.91,44.61 -2.87,28.48 -6,12 -6.4,9.77 -6.79,7.54 -7.19,5.31 -7.46,3.87 -7.73,2.44 -8,1 -2.25,0 -2.25,0 0,0 Z" clip-path="url(#clipPath89)" transform="matrix(0.5394252,0,0,0.54017625,245.25745,201.14139)"/><path id="path6" fill="#d07f31" d="M 0,0 C 0.33,0 0.66,0 1,0 2.84,32.25 -15.04,67.12 -34.93,91.36 -48.08,105.55 -69.31,121.14 -89,122 c -4.9,0.13 -9.79,0.14 -14.69,0.12 -1.28,0.01 -2.56,0.01 -3.87,0.02 -1.25,0 -2.49,-0.01 -3.76,-0.01 -1.68,0 -1.68,0 -3.38,0 -4.84,-0.19 -8.99,-0.38 -13.23,-2.81 -2.07,-2.32 -2.07,-2.32 -2.52,-5.18 0.94,-9.72 3,-18.99 6.45,-28.14 2,-1 2,-1 4.62,-1.19 7.77,-1.87 12.96,-7.94 17.07,-14.51 0.55,-0.96 1.1,-1.92 1.67,-2.91 0.61,-1.08 1.23,-2.15 1.87,-3.26 0.97,-1.71 0.97,-1.71 1.96,-3.44 0.67,-1.18 1.34,-2.36 2.02,-3.54 1.33,-2.33 2.65,-4.65 3.98,-6.98 1.52,-2.66 3.06,-5.31 4.62,-7.95 C -79.96,31.6 -75.9,20.97 -73,9 c 4.39,0.98 8.79,1.95 13.18,2.93 0.8,0.18 1.6,0.35 2.42,0.53 1.57,0.35 3.14,0.72 4.7,1.11 5.21,1.26 10.09,1.78 15.45,1.74 0.78,0 1.56,-0.01 2.36,-0.01 C -23.98,15.08 -12.12,13.23 -4.15,5.12 -3.1,3.89 -2.08,2.64 -1.09,1.36 -0.55,0.68 -0.55,0.68 0,0 Z" clip-path="url(#clipPath88)" transform="matrix(0.5394252,0,0,0.54017625,240.40268,219.50736)"/><path id="path7" fill="#ff4700" d="m 0,0 c 1.56,4.88 1.12,10.28 1.06,15.38 0,0.83 -0.01,1.66 -0.01,2.51 C 1.04,19.93 1.02,21.96 1,24 c 0.99,-0.5 0.99,-0.5 2,-1 5.36,-0.37 10.74,-0.07 16,1 2.8,2.8 2.54,4.97 2.88,8.88 0.12,1.23 0.24,2.46 0.36,3.74 C 22,40 22,40 20.45,42.43 c -3.31,2.13 -5.6,2 -9.51,1.88 C 9.71,44.29 8.48,44.26 7.21,44.24 4,44 4,44 1,43 0.97,47.62 0.96,52.24 0.95,56.87 0.94,58.43 0.93,60 0.92,61.57 0.87,70.77 1.01,79.84 2,89 c 1.17,-0.06 2.34,-0.12 3.54,-0.18 1.55,-0.04 3.1,-0.09 4.65,-0.13 0.77,-0.04 1.54,-0.09 2.33,-0.13 4.36,-0.09 5.95,0.02 9.48,2.85 3.51,4.55 3.43,8.95 3,14.59 -1.46,6.46 -1.46,6.46 -4,9 -3.12,0.23 -3.12,0.23 -6.88,0.19 -1.23,-0.01 -2.46,-0.02 -3.74,-0.02 C 7.65,115.03 5.61,114.66 3,114 c -2.33,-0.13 -4.67,-0.23 -7,-0.31 -8.41,-0.44 -15.78,-2.5 -23.25,-6.38 -3.63,-1.73 -6.76,-1.97 -10.75,-2.31 -0.5,1.98 -0.5,1.98 -1,4 -1.32,0.33 -2.64,0.66 -4,1 0,0.66 0,1.32 0,2 -5.78,0.17 -11.57,0.33 -17.35,0.48 -1.97,0.06 -3.94,0.11 -5.91,0.17 -2.82,0.08 -5.65,0.16 -8.48,0.23 -0.88,0.03 -1.76,0.05 -2.67,0.08 -0.82,0.02 -1.64,0.04 -2.49,0.06 -0.72,0.02 -1.44,0.04 -2.18,0.06 C -84,113 -84,113 -87,112 c -1.29,-7.43 -1.29,-7.43 0,-11 -0.99,0.5 -0.99,0.5 -2,1 -2,0.04 -4,0.04 -6,0 0.33,1.98 0.66,3.96 1,6 -0.97,-0.89 -1.94,-1.77 -2.94,-2.69 -4.01,-3.45 -8.37,-5.9 -13.06,-8.31 0.5,-0.99 0.5,-0.99 1,-2 2.54,-0.39 4.98,-0.66 7.54,-0.85 1.13,-0.1 1.13,-0.1 2.28,-0.19 2.41,-0.21 4.83,-0.4 7.24,-0.58 1.64,-0.14 3.27,-0.27 4.9,-0.41 4.01,-0.33 8.03,-0.66 12.04,-0.97 0.02,-5.27 0.04,-10.53 0.05,-15.8 0.01,-1.78 0.02,-3.57 0.03,-5.36 0.01,-2.58 0.01,-5.16 0.02,-7.75 0,-0.79 0.01,-1.58 0.01,-2.39 0,-4.99 -0.4,-9.76 -1.11,-14.7 -2.64,-0.66 -5.28,-1.32 -8,-2 -2.41,-9.64 -2.41,-9.64 0,-13.67 3.16,-2.1 6.62,-2.19 10.31,-2.52 0.8,-0.08 1.6,-0.15 2.42,-0.23 20.02,-1.83 20.02,-1.83 25.27,2.42 -0.13,0.86 -0.26,1.73 -0.4,2.62 -1.78,12.76 -2.26,25.51 -2.72,38.38 -0.09,2.24 -0.18,4.48 -0.27,6.72 -0.21,5.43 -0.41,10.85 -0.61,16.28 1.2,0.13 2.41,0.27 3.65,0.4 1.57,0.18 3.15,0.36 4.73,0.54 0.79,0.08 1.58,0.17 2.4,0.26 5.99,0.69 5.99,0.69 8.22,1.8 0,-17.16 0,-34.32 0,-52 -3.3,-0.66 -6.6,-1.32 -10,-2 -1.49,-9.28 -1.49,-9.28 -1,-13 4.16,-4.73 9.05,-7.73 14.36,-11.04 2.6,-1.93 3.66,-2.92 4.64,-5.96 -0.02,-1.13 -0.04,-2.27 -0.06,-3.44 0.07,-3.89 0.72,-5.5 3.06,-8.56 2.71,-1.35 5.33,-1.68 8.31,-2.19 1.13,-0.2 2.26,-0.4 3.43,-0.6 C -4.74,-2.02 -2.94,-1.96 0,0 Z" clip-path="url(#clipPath87)" transform="matrix(0.5394252,0,0,0.54017625,292.18749,146.58357)"/><path id="path8" fill="#d07e31" d="m 0,0 c 1.12,0.63 2.24,1.26 3.39,1.9 0.83,0.43 1.65,0.87 2.49,1.31 8.98,5.04 14.3,12.68 17.61,22.3 3.67,13.77 0.89,25.85 -3.35,39.08 -0.27,0.88 -0.55,1.76 -0.83,2.66 C 15.2,79.55 7.89,88.28 -3.55,94.37 -7.46,95.38 -10.61,94.49 -14.03,92.48 -37.4,73.53 -52.43,41.09 -57.61,11.9 -58.32,4.58 -57.89,-0.93 -54.19,-7.36 -42.53,-20.19 -12.02,-6.54 0,0 Z" clip-path="url(#clipPath86)" transform="matrix(0.5394252,0,0,0.54017625,334.58928,211.45747)"/><path id="path9" fill="#fcfbfb" d="m 0,0 c 4.88,2.87 9.37,6.02 13.74,9.61 0.73,0.6 1.46,1.19 2.22,1.8 8.44,7.58 13.69,18.98 14.78,30.2 0.11,1.03 0.11,1.03 0.22,2.09 0.25,2.38 0.46,4.77 0.65,7.16 0.08,0.77 0.15,1.54 0.23,2.33 0.34,5.37 -0.55,8.14 -4.1,12.42 -3.78,3.78 -6.65,4.91 -12,5 -4.37,-1.05 -8.15,-2.4 -11,-6 -0.67,-2.67 -0.78,-5.23 -1,-8 -1.65,0 -3.3,0 -5,0 -1.43,4.68 -2.41,9.13 -3,14 -5.39,2.23 -10.27,2.34 -16,2.32 -0.88,0.01 -1.75,0.03 -2.66,0.04 -5.22,0.01 -8.81,-0.49 -13.34,-3.36 -0.33,-0.33 -0.66,-0.66 -1,-1 0.05,-2.14 0.05,-2.14 0.31,-4.81 0.08,-0.87 0.16,-1.74 0.24,-2.64 0.45,-2.53 1.18,-4.33 2.45,-6.55 -0.99,-0.99 -1.98,-1.98 -3,-3 -2.9,1.58 -5.1,3.1 -7.44,5.44 -4.6,4.6 -7.66,6.81 -14.25,6.88 -3.12,-0.09 -5.33,-0.32 -8.31,-1.32 -4.76,-9.51 -1.68,-20.38 1.46,-29.91 4.61,-12.89 14.53,-24.54 26.54,-31.09 0.86,-0.48 1.72,-0.97 2.6,-1.47 C -25.28,-5.49 -11.42,-5.61 0,0 Z" clip-path="url(#clipPath85)" transform="matrix(0.5394252,0,0,0.54017625,357.05968,283.99724)"/><path id="path10" fill="#fcfbfb" d="m 0,0 c 1.54,-0.02 1.54,-0.02 3.11,-0.04 5.66,-0.01 10.28,0.43 15.64,2.23 1.58,0.22 3.16,0.43 4.75,0.62 9.62,1.88 17.69,9.58 23.25,17.38 1.56,2.59 2.82,5.22 4,8 0.3,0.6 0.6,1.2 0.91,1.82 3.01,6.66 3.48,14.66 1.33,21.65 -1.75,3.7 -3.85,7.16 -7.24,9.53 -2.31,0.19 -2.31,0.19 -5,-1 -1.82,-1.76 -3.51,-3.58 -5.16,-5.51 -2.38,-1.93 -3.85,-1.77 -6.84,-1.49 -0.22,0.72 -0.44,1.45 -0.66,2.19 -2.01,6.12 -3.84,11.14 -9.34,14.81 -5.42,2.3 -9.37,2.18 -15,1 -2.87,-1.19 -2.87,-1.19 -5,-3 -1.31,-3.19 -1.31,-3.19 -2,-6 -2.92,-0.25 -2.92,-0.25 -6,0 -2.23,2.97 -2.23,2.97 -2.94,6.87 -0.85,3.53 -1.61,6.34 -4.06,9.13 -3.97,1.32 -7.06,1.32 -10.94,-0.13 C -33.76,74.4 -38.52,65.4 -40.75,58.38 -43.12,44.88 -41.66,30.3 -34.11,18.71 -24.38,5.54 -16.35,0.01 0,0 Z" clip-path="url(#clipPath84)" transform="matrix(0.5394252,0,0,0.54017625,160.70258,290.16918)"/><path id="path11" fill="#d07e31" d="M 0,0 C 0.06,1.7 0.06,1.7 0.11,3.44 0.23,12.68 0.23,12.68 2.56,21.5 6.17,30.28 3.41,39.48 0,48 c -5.4,11.84 -12.22,23.05 -18.92,34.19 -0.97,1.62 -1.92,3.25 -2.87,4.88 -6.7,11.49 -6.7,11.49 -11.71,14.37 -2.95,0.66 -4.61,0.41 -7.5,-0.44 C -51.54,91.94 -65.12,66.54 -66.27,52.74 -66.62,39.65 -62.79,33.34 -53.92,23.88 -40.84,10.42 -19.78,-5.3 0,0 Z" clip-path="url(#clipPath83)" transform="matrix(0.5394252,0,0,0.54017625,194.5515,205.46279)"/><path id="path12" fill="#f4939a" d="m 0,0 c 11.88,0 23.76,0 36,0 3.59,13.15 6.73,28.59 0.77,41.7 -1.46,2.24 -3.05,4.25 -4.77,6.3 -0.56,0.79 -1.12,1.58 -1.7,2.4 -3.6,5 -6.74,8.03 -12.3,10.6 -0.79,0.42 -1.57,0.84 -2.38,1.27 C 1.88,69.54 -11.18,69.15 -26,65 -32.05,61.99 -36.28,57.36 -38.79,51.01 -43.19,37.43 -46.31,22.26 -40.07,8.79 -39,7 -39,7 -37,5 c 2.61,-0.23 2.61,-0.23 5.88,-0.2 1.75,0.01 1.75,0.01 3.54,0.02 1.22,0.02 2.44,0.04 3.7,0.06 1.24,0 2.47,0.01 3.74,0.02 3.04,0.03 6.09,0.06 9.14,0.1 0.11,0.9 0.22,1.8 0.34,2.73 0.42,3.41 0.84,6.82 1.26,10.23 0.18,1.46 0.36,2.92 0.54,4.39 0.52,4.21 1.05,8.43 1.6,12.64 0.25,1.95 0.49,3.9 0.73,5.86 0.16,1.16 0.31,2.32 0.48,3.51 0.13,1.02 0.26,2.04 0.39,3.09 0.71,2.75 1.47,3.8 3.66,5.55 0.08,-4.74 0.01,-9.34 -0.5,-14.06 C -5.28,10.56 -5.28,10.56 0,0 Z" clip-path="url(#clipPath82)" transform="matrix(0.5394252,0,0,0.54017625,256.58542,292.97134)"/><path id="path13" fill="#fe4700" d="M 0,0 C -0.13,0.86 -0.26,1.73 -0.4,2.62 -2.18,15.38 -2.66,28.13 -3.12,41 -3.21,43.24 -3.3,45.48 -3.39,47.72 -3.6,53.15 -3.8,58.57 -4,64 c 1.19,0.12 2.38,0.24 3.61,0.37 1.57,0.17 3.14,0.34 4.7,0.51 0.79,0.07 1.57,0.15 2.38,0.23 1.14,0.13 1.14,0.13 2.3,0.26 1.04,0.11 1.04,0.11 2.11,0.22 C 13,66 13,66 16,68 c 0.99,2.62 1.42,5.25 2,8 -3.3,-0.33 -6.6,-0.66 -10,-1 -0.5,1.98 -0.5,1.98 -1,4 -1.32,0.33 -2.64,0.66 -4,1 0,0.66 0,1.32 0,2 -5.78,0.17 -11.57,0.33 -17.35,0.48 -1.97,0.06 -3.94,0.11 -5.91,0.17 -2.82,0.08 -5.65,0.16 -8.48,0.23 -0.88,0.03 -1.76,0.05 -2.67,0.08 -0.82,0.02 -1.64,0.04 -2.49,0.06 -0.72,0.02 -1.44,0.04 -2.18,0.06 C -38,83 -38,83 -41,82 c -1.29,-7.43 -1.29,-7.43 0,-11 -0.99,0.5 -0.99,0.5 -2,1 -2,0.04 -4,0.04 -6,0 0.33,1.98 0.66,3.96 1,6 -0.97,-0.89 -1.94,-1.77 -2.94,-2.69 -4.01,-3.45 -8.37,-5.9 -13.06,-8.31 0.5,-0.99 0.5,-0.99 1,-2 2.54,-0.39 4.98,-0.66 7.54,-0.85 1.13,-0.1 1.13,-0.1 2.28,-0.19 2.41,-0.21 4.83,-0.4 7.24,-0.58 1.64,-0.14 3.27,-0.27 4.9,-0.41 4.01,-0.33 8.03,-0.66 12.04,-0.97 0.02,-5.27 0.04,-10.53 0.05,-15.8 0.01,-1.78 0.02,-3.57 0.03,-5.36 0.01,-2.58 0.01,-5.16 0.02,-7.75 0,-0.79 0.01,-1.58 0.01,-2.39 0,-4.99 -0.4,-9.76 -1.11,-14.7 -2.64,-0.66 -5.28,-1.32 -8,-2 -2.41,-9.64 -2.41,-9.64 0,-13.67 3.16,-2.1 6.62,-2.19 10.31,-2.52 0.8,-0.08 1.6,-0.15 2.42,-0.23 C -5.25,-4.25 -5.25,-4.25 0,0 Z" clip-path="url(#clipPath81)" transform="matrix(0.5394252,0,0,0.54017625,267.37393,162.78886)"/><path id="path14" fill="#fcfbfb" d="m 0,0 c 0.29,1.15 0.29,1.15 0.59,2.32 2.91,10.42 7.27,23.86 16.34,30.54 4.52,2.49 9.25,4.3 14.07,6.14 -0.33,5.28 -0.66,10.56 -1,16 -21.78,0 -43.56,0 -66,0 -3.47,-9.4 -3.47,-9.4 -7,-19 -4.43,-6.99 -8.65,-11.84 -15,-17 0,-0.66 0,-1.32 0,-2 0.76,-0.04 1.51,-0.08 2.29,-0.12 3.49,-0.19 6.97,-0.41 10.46,-0.63 1.19,-0.06 2.37,-0.12 3.6,-0.19 11.39,-0.74 21.09,-3.5 30.71,-9.68 0.64,-0.4 1.27,-0.79 1.93,-1.2 C -0.69,0 -0.69,0 0,0 Z" clip-path="url(#clipPath80)" transform="matrix(0.5394252,0,0,0.54017625,213.97083,281.08746)"/><path id="path15" fill="#ff4700" d="m 0,0 c 4.68,-0.07 9.35,-0.13 14.03,-0.16 1.59,-0.02 3.18,-0.04 4.76,-0.07 18.69,-0.3 18.69,-0.3 27.15,5.11 3.26,3.36 3.95,5.93 4.37,10.56 -0.45,5.16 -1.92,8.24 -5.69,11.81 -2.49,1.66 -4.79,2.78 -7.62,3.75 1.09,0.66 2.19,1.32 3.31,2 7.81,5.69 8.05,17.08 9.69,26 2.31,0 4.62,0 7,0 0,0.99 0,1.98 0,3 -5.21,1.74 -10.71,1.73 -15.94,0.06 C 37.12,58.12 36.43,52.67 35.07,47.4 34.74,46.16 34.41,44.91 34.06,43.62 33.76,42.44 33.47,41.26 33.16,40.04 31.84,36.59 31.32,35.57 28,34 c -2.97,-0.33 -5.94,-0.66 -9,-1 0,8.58 0,17.16 0,26 2.64,0 5.28,0 8,0 0,0.99 0,1.98 0,3 -8.91,0 -17.82,0 -27,0 0,-0.99 0,-1.98 0,-3 2.64,0 5.28,0 8,0 C 8,40.52 8,22.04 8,3 5.36,3 2.72,3 0,3 0,2.01 0,1.02 0,0 Z" clip-path="url(#clipPath79)" transform="matrix(0.5394252,0,0,0.54017625,241.48152,346.98897)"/><path id="path16" fill="#ff4700" d="M 0,0 C 4.23,-0.07 8.46,-0.13 12.7,-0.16 14.13,-0.18 15.57,-0.2 17,-0.23 26.59,-0.4 35.46,-0.3 43.94,4.75 47.5,8.63 49.14,12.77 49.38,18 49.12,22.99 47.92,27.08 44.3,30.7 36.15,37.31 29.72,37 19,37 c 0,7.26 0,14.52 0,22 2.97,0 5.94,0 9,0 0,0.99 0,1.98 0,3 -9.24,0 -18.48,0 -28,0 0,-0.99 0,-1.98 0,-3 2.64,0 5.28,0 8,0 C 8,40.52 8,22.04 8,3 5.36,3 2.72,3 0,3 0,2.01 0,1.02 0,0 Z" clip-path="url(#clipPath78)" transform="matrix(0.5394252,0,0,0.54017625,199.9458,346.98897)"/><path id="path17" fill="#ff4700" d="M 0,0 C 6.4,5.97 9.24,15.19 9.89,23.64 10.08,34.06 7.68,43.03 0.69,51 c -6.22,5.18 -13.47,7.52 -21.54,7.32 -6.29,-0.81 -13.4,-3.18 -18.12,-7.57 C -46.18,41.36 -48.09,31.54 -47.31,20 -45.97,12.15 -42.6,4.58 -36.39,-0.6 -24.32,-8.6 -12.03,-7.26 0,0 Z m -29.73,2.73 c -7.04,10.32 -7.08,24.29 -4.89,36.27 1.61,5.92 4.57,10.49 9.18,14.5 3.79,1.82 5.97,2.09 10.13,1.5 5.2,-2.75 8.81,-5.84 10.91,-11.43 3.29,-11.32 4.23,-25.86 -0.95,-36.75 -2.56,-4.51 -5.19,-7.53 -9.96,-9.82 -6.34,-0.91 -10.34,0.75 -14.42,5.73 z" clip-path="url(#clipPath77)" transform="matrix(0.5394252,0,0,0.54017625,311.77536,349.68987)"/><path id="path18" fill="#692d16" d="m 0,0 c 3.55,5.62 5.88,12.2 4.65,18.91 -1.68,5.08 -4.08,11.35 -8.61,14.45 -5.12,1.71 -10.98,1.43 -15.98,-0.55 -4.32,-2.42 -6.45,-4.14 -8.37,-8.75 -1.88,-7.83 -1.8,-15.96 2.25,-23 1.08,-1.63 1.08,-1.63 3,-3 2.87,-0.4 5.55,-0.65 8.44,-0.75 0.76,-0.04 1.52,-0.08 2.31,-0.13 C -3.44,-3.23 -3.44,-3.23 0,0 Z" clip-path="url(#clipPath76)" transform="matrix(0.5394252,0,0,0.54017625,228.569,229.19679)"/><path id="path19" fill="#692d16" d="m 0,0 c 3.49,2.72 5.59,5.95 7,10.09 0.81,7.53 0.26,15.59 -4,22 -2.5,2.49 -3.28,2.99 -6.83,3.02 -11.33,-0.69 -11.33,-0.69 -16.17,-5.02 -0.52,-0.46 -1.04,-0.91 -1.57,-1.38 -3.14,-3.56 -3.4,-8.64 -3.47,-13.23 0.34,-5.45 1.27,-9.22 5.04,-13.39 5.33,-4 13.86,-4.89 20,-2.09 z" clip-path="url(#clipPath75)" transform="matrix(0.5394252,0,0,0.54017625,289.49244,227.56361)"/><path id="path20" fill="#ff4700" d="m 0,0 c 5.05,0.51 8.11,4.43 11.62,7.75 1.03,0.93 1.03,0.93 2.07,1.88 3.4,3.19 6.08,5.71 7.31,10.37 -1.89,2.23 -3.79,4.46 -5.69,6.69 -0.53,0.62 -1.06,1.25 -1.6,1.89 C 10.6,32.22 7.43,35.67 4,39 -2.28,36.89 -6.27,32.47 -11,28 c -0.74,-0.66 -1.48,-1.33 -2.24,-2.01 -0.64,-0.59 -1.28,-1.19 -1.95,-1.8 -0.57,-0.52 -1.14,-1.05 -1.73,-1.58 C -18,21 -18,21 -18.02,19.16 c 1.53,-3.24 4.02,-5.47 6.58,-7.91 0.52,-0.51 1.04,-1.01 1.58,-1.54 C -8.58,8.47 -7.29,7.23 -6,6 c 3.88,1.88 3.88,1.88 5,3 0.04,1.67 0.04,3.33 0,5 0.66,0 1.32,0 2,0 0.03,1.94 0.05,3.87 0.06,5.81 0.01,1.08 0.03,2.16 0.04,3.27 C 1,26 1,26 0,29 c 1.32,0 2.64,0 4,0 0.33,-0.99 0.66,-1.98 1,-3 -0.66,0 -1.32,0 -2,0 0,-3.63 0,-7.26 0,-11 4.26,2.13 4.75,3.11 7,7 0.66,0 1.32,0 2,0 0.33,-1.32 0.66,-2.64 1,-4 C 12.26,17.92 11.51,17.84 10.75,17.75 7.41,16.84 6.1,15.72 4,13 4,11.68 4,10.36 4,9 3.24,8.92 2.47,8.84 1.69,8.75 -1.52,7.85 -2.29,6.78 -4,4 -2.25,1.94 -2.25,1.94 0,0 Z" clip-path="url(#clipPath74)" transform="matrix(0.5394252,0,0,0.54017625,306.75196,140.64163)"/><path id="path21" fill="#ff4700" d="m 0,0 c 3.78,1.62 5.1,2.68 7.06,6.31 1.16,4.79 1.44,8.68 -0.12,13.38 -3.74,5.23 -7.56,7.46 -13.88,8.62 -4.81,0.15 -7.98,-0.23 -11.87,-3.19 -3.18,-4.2 -5.49,-7.41 -5.07,-12.81 0.86,-4.84 3.12,-8.34 6.75,-11.65 C -12.18,-2.38 -5.48,-0.96 0,0 Z" clip-path="url(#clipPath73)" transform="matrix(0.5394252,0,0,0.54017625,262.48536,139.93265)"/><path id="path22" fill="#8f2f06" d="M 0,0 C 3.04,1.81 4.54,3.21 6.31,6.25 8.24,13.94 6.67,20.09 3,27 0.73,29.81 -0.02,30 -3.75,30.94 -8.42,31.36 -11.41,29.9 -15,27 -19.28,22.38 -20.42,18.58 -20.34,12.42 -19.74,8.2 -17.79,5.16 -15,2 -10.17,-1.62 -5.64,-1.53 0,0 Z" clip-path="url(#clipPath72)" transform="matrix(0.5394252,0,0,0.54017625,203.18231,263.26165)"/><path id="path23" fill="#8f2f06" d="M 0,0 C 3.16,1.85 5.45,4.15 7.44,7.25 8.56,12.74 7.81,17.39 5.31,22.38 1.76,26.41 -1.25,27.78 -6.56,28.44 -10.66,27.92 -12.18,26.98 -15,24 -17.8,19.54 -17.1,14.94 -16,10 -12.27,2.19 -8.82,-2.06 0,0 Z" clip-path="url(#clipPath71)" transform="matrix(0.5394252,0,0,0.54017625,310.52796,262.18129)"/><path id="path24" fill="#fff" d="m 0,0 c 3.26,2.53 4.9,4.69 5.61,8.83 0.31,5.06 -0.5,8.47 -3.73,12.41 -3.51,3.26 -7.28,5.54 -12.14,5.48 -4.63,-1.81 -5.97,-6.37 -8.1,-10.6 C -20.57,10.76 -20.73,7.4 -18.69,1.88 -13.67,-3.62 -6.29,-2.86 0,0 Z" clip-path="url(#clipPath70)" transform="matrix(0.5394252,0,0,0.54017625,222.46678,172.64708)"/><path id="path25" fill="#fff" d="m 0,0 c 0.72,0.11 1.45,0.23 2.2,0.34 2.3,0.37 4.61,0.76 6.91,1.14 1.57,0.25 3.13,0.5 4.69,0.74 1.49,0.24 2.97,0.48 4.45,0.72 0.7,0.11 1.41,0.22 2.13,0.34 4.93,0.84 4.93,0.84 6.05,1.95 0.31,2.32 0.31,2.32 0,5 -4.28,5.24 -9.57,6 -16,7 -13.62,0.93 -13.62,0.93 -19,-2 -2.56,-3.23 -4,-6.68 -4,-10.81 C -9.88,-1.46 -5.66,-0.99 0,0 Z" clip-path="url(#clipPath69)" transform="matrix(0.5394252,0,0,0.54017625,215.35945,209.65761)"/><path id="path26" fill="#fff" d="m 0,0 c 10.5,0 10.5,0 15,3 4.04,4.45 4.29,8.71 4.21,14.5 C 18.8,22.32 16.99,25.08 13.5,28.31 8.6,31.62 6.54,31 0,31 0,20.77 0,10.54 0,0 Z" clip-path="url(#clipPath68)" transform="matrix(0.5394252,0,0,0.54017625,210.19484,348.60951)"/><path id="path27" fill="#fff" d="m 0,0 c 12.92,0 12.92,0 18,4 2.52,3.95 2.58,8.43 2,13 -1.58,4.18 -3.14,6.71 -7,9 -3,1 -3,1 -13,1 C 0,18.09 0,9.18 0,0 Z" clip-path="url(#clipPath67)" transform="matrix(0.5394252,0,0,0.54017625,251.73059,348.60951)"/><path id="path28" fill="#692d16" d="m 0,0 c -0.11,2.32 -0.11,2.32 -1,5 -2.73,1.58 -2.73,1.58 -6.19,2.81 -1.13,0.42 -2.25,0.84 -3.42,1.27 -3.3,0.9 -5.98,1.1 -9.39,0.92 0.33,1.98 0.66,3.96 1,6 -1.45,-1.33 -1.45,-1.33 -2.94,-2.69 C -25.95,9.86 -30.31,7.41 -35,5 c 0.33,-0.66 0.66,-1.32 1,-2 2.91,-0.5 2.91,-0.5 6.77,-0.85 0.68,-0.07 1.36,-0.13 2.06,-0.19 2.18,-0.21 4.36,-0.4 6.55,-0.58 1.46,-0.14 2.92,-0.27 4.39,-0.41 C -3.67,0 -3.67,0 0,0 Z" clip-path="url(#clipPath66)" transform="matrix(0.5394252,0,0,0.54017625,251.73059,196.2798)"/><path id="path29" fill="#fff" d="M 0,0 C 2.62,0.44 2.62,0.44 5.06,2.56 6.62,5.44 6.62,5.44 6.19,8.62 4.62,11.44 4.62,11.44 2,12.81 c -0.78,0.21 -1.57,0.41 -2.38,0.63 -2.56,-2.13 -2.56,-2.13 -5,-5 C -5.29,4.03 -4.77,0.88 0,0 Z" clip-path="url(#clipPath65)" transform="matrix(0.5394252,0,0,0.54017625,223.88279,229.53437)"/><path id="path30" fill="#fff" d="M 0,0 C 5.56,1.33 5.56,1.33 7.56,4.38 8,7 8,7 7,9.31 5,11 5,11 2,11.5 -1,11 -1,11 -3,9.31 -4,7 -4,7 -3.31,4.38 -2,2 -2,2 0,0 Z" clip-path="url(#clipPath64)" transform="matrix(0.5394252,0,0,0.54017625,285.71434,229.23056)"/><path id="path31" fill="#692d16" d="M 0,0 C 2.1,0.11 4.21,0.24 6.31,0.38 7.48,0.44 8.66,0.51 9.86,0.59 13,1 13,1 16,3 16.99,5.62 17.42,8.25 18,11 14.58,10.99 11.33,10.84 8,10 5.97,7.19 5,5.48 5,2 3.35,1.67 1.7,1.34 0,1 0,0.67 0,0.34 0,0 Z" clip-path="url(#clipPath63)" transform="matrix(0.5394252,0,0,0.54017625,267.37393,197.90034)"/></svg>